<?xml version="1.0"?>
<svg version="1.1" xmlns="http://www.w3.org/2000/svg"  style=""><path fill="#3d4042" d="M21.4,49.136l12.064,0l0-2.432l-12.064,0q-2.368,0-3.968,1.856q-1.632,1.888-1.632,4.576q0,2.432,1.632,4.224q1.6,1.824,3.968,1.824l3.2,0l3.264,0q1.44,0,2.56,1.216q1.056,1.28,1.056,2.784q0,1.792-1.04,2.912t-2.576,1.12l-12.064,0l0,1.984l12.064,0q2.4,0,4-1.664t1.6-4.352q0-2.432-1.6-4.224q-1.632-1.792-4-1.792l-3.264,0l-3.2,0q-1.472,0-2.528-1.28q-1.088-1.184-1.088-2.752q0-1.792,1.04-2.896t2.576-1.104z M54.48288,46.8l-17.344,0l0,1.952l7.872,0l0,20.512l1.984,0l0-20.512l7.488,0l0-1.952z M60.36576,63.056q0-1.536,1.088-2.784q1.088-1.312,2.624-1.312l0.416,0l5.984,0l0-1.984l-5.984,0l-0.416,0q-1.632-0.32-2.672-1.408t-1.04-2.592q0-1.888,1.104-2.992t3.024-1.104l10.88,0l0-2.016l-10.88,0q-2.464,0-4.288,1.824q-1.824,1.76-1.824,4.288q0,1.6,0.608,2.912t1.792,1.888q-1.184,0.864-1.792,2.272t-0.608,3.008q0,2.496,1.824,4.256q1.856,1.856,4.288,1.856l10.88,0l0-2.112l-10.88,0q-1.92,0-3.024-1.088t-1.104-2.912z M81.54464,48.752l15.264,0l0-1.984l-17.248,0l0,0.384l0,22.048l1.984,0l0-9.984l8.096,0l0-2.08l-8.096,0l0-8.384z M108.89952,46.672q-3.584,0-6.016,2.592q-2.4,2.56-2.4,6.24l0,13.696l2.016,0l0-10.048l12.864,0l0,10.048l2.016,0l0-13.696q0-3.68-2.4-6.24q-2.496-2.592-6.08-2.592z M115.36352,57.168l-12.864,0l0-1.664q0-2.752,1.856-4.768q1.888-2.048,4.544-2.048t4.608,2.048q1.856,2.016,1.856,4.768l0,1.664z M122.2384,69.2l1.984,0l0-13.568q0-2.688,2.048-4.8q2.048-2.048,4.736-2.048t4.8,2.048q2.048,2.112,2.048,4.8l0,13.568l1.984,0l0-13.568q0-3.648-2.592-6.24t-6.24-2.592q-3.584,0-6.176,2.592t-2.592,6.24l0,13.568z M167.76416,46.8l-10.048,0l-1.984,0l0,22.496l1.984,0l0-11.264l10.048,0q2.432,0,4.032-1.6t1.6-4q0-2.176-1.6-3.872q-1.696-1.76-4.032-1.76z M167.76416,56.048l-10.048,0l0-7.264l10.048,0q1.472,0,2.592,1.056q1.056,1.12,1.056,2.592q0,1.504-1.056,2.56q-1.12,1.056-2.592,1.056z M185.90304,46.8q-3.616,0-6.208,2.592q-2.624,2.624-2.624,6.24l0,4.832q0,3.552,2.624,6.176t6.208,2.624q3.616,0,6.24-2.624q2.592-2.592,2.592-6.176l0-4.832q0-3.648-2.592-6.24t-6.24-2.592z M192.75104,55.632l0,4.832q0,2.912-2.048,4.896q-2.016,1.92-4.8,1.92t-4.768-1.92q-2.048-1.984-2.048-4.896l0-4.832q0-2.688,2.048-4.8q2.048-2.048,4.768-2.048q2.688,0,4.8,2.048q2.048,2.112,2.048,4.8z M211.62592,46.8l-10.048,0l-1.984,0l0,22.496l1.984,0l0-11.264l10.048,0q2.432,0,4.032-1.6t1.6-4q0-2.176-1.6-3.872q-1.696-1.76-4.032-1.76z M211.62592,56.048l-10.048,0l0-7.264l10.048,0q1.472,0,2.592,1.056q1.056,1.12,1.056,2.592q0,1.504-1.056,2.56q-1.12,1.056-2.592,1.056z"/><path fill="#" d=""/></svg>
